<?xml version="1.0" standalone="no"?>
<!DOCTYPE svg PUBLIC "-//W3C//DTD SVG 20010904//EN"
 "http://www.w3.org/TR/2001/REC-SVG-20010904/DTD/svg10.dtd">
<svg version="1.0" xmlns="http://www.w3.org/2000/svg"
 width="1181.000000pt" height="1181.000000pt" viewBox="0 0 1181.000000 1181.000000"
 preserveAspectRatio="xMidYMid meet">
<metadata>
Created by potrace 1.11, written by Peter Selinger 2001-2013
</metadata>
<g transform="translate(0.000000,1181.000000) scale(0.100000,-0.100000)"
fill="#000000" stroke="none">
<path d="M2272 10005 c-10 -15 -10 -345 0 -346 4 -1 11 -2 16 -3 4 -1 25 -5
47 -10 22 -4 46 -13 54 -19 8 -7 21 -12 30 -12 22 -1 131 -47 131 -56 0 -4 9
-11 21 -14 31 -10 160 -142 206 -210 80 -119 153 -306 169 -434 2 -20 7 -47
10 -61 3 -14 7 -41 10 -60 4 -29 8 -53 14 -80 8 -37 32 -164 36 -195 3 -22 9
-53 14 -70 5 -16 12 -52 15 -79 3 -27 8 -52 10 -56 3 -5 8 -32 11 -61 3 -29
10 -63 15 -76 5 -13 9 -39 9 -58 0 -19 4 -44 9 -57 5 -13 11 -43 15 -68 3 -25
9 -56 12 -70 3 -14 7 -41 10 -60 3 -19 8 -46 11 -60 9 -36 10 -44 17 -88 3
-22 9 -59 15 -83 5 -24 15 -78 21 -119 6 -41 15 -91 20 -110 5 -19 12 -55 15
-80 4 -24 8 -47 10 -50 2 -4 7 -26 10 -51 3 -24 7 -51 9 -59 10 -51 17 -89 21
-114 2 -16 9 -54 15 -85 17 -86 29 -153 36 -191 10 -62 12 -75 14 -75 1 0 3
-16 5 -35 2 -19 6 -46 10 -60 4 -14 11 -52 16 -85 5 -33 12 -68 15 -77 3 -10
7 -30 10 -45 16 -104 27 -163 35 -194 5 -20 12 -60 15 -90 3 -30 9 -58 12 -64
3 -5 7 -25 9 -45 2 -19 6 -46 10 -60 10 -38 12 -51 18 -104 3 -27 8 -53 11
-57 3 -5 7 -25 9 -46 3 -21 9 -58 15 -83 5 -25 12 -62 15 -84 3 -21 7 -41 9
-45 3 -4 7 -31 11 -61 3 -29 8 -57 11 -61 2 -4 7 -27 10 -51 3 -24 9 -59 14
-78 5 -19 12 -57 15 -84 3 -27 7 -52 10 -55 2 -4 7 -30 10 -57 3 -27 10 -62
15 -79 5 -16 11 -51 14 -78 3 -26 7 -51 10 -55 2 -4 7 -32 11 -62 4 -30 9 -59
12 -63 2 -4 6 -22 9 -40 7 -56 13 -91 23 -126 6 -19 8 -37 6 -41 -2 -4 0 -22
6 -41 5 -19 12 -50 14 -69 5 -36 19 -109 35 -190 5 -25 12 -63 16 -85 3 -22
15 -85 25 -140 11 -55 22 -113 24 -130 17 -109 28 -164 35 -190 5 -16 10 -48
11 -70 1 -22 6 -47 10 -56 5 -9 11 -36 14 -60 3 -24 9 -64 15 -89 5 -25 11
-61 13 -81 3 -20 7 -41 10 -46 3 -5 8 -31 11 -58 8 -65 25 -160 38 -210 6 -22
12 -58 14 -79 2 -22 6 -47 10 -55 3 -9 8 -32 10 -51 2 -19 8 -55 13 -80 6 -25
13 -62 16 -84 3 -21 7 -41 9 -45 2 -3 7 -31 11 -61 3 -30 10 -68 15 -85 5 -16
10 -46 12 -65 1 -19 5 -42 9 -50 4 -8 10 -41 13 -74 11 -99 5 -96 171 -96 128
0 144 2 149 18 8 28 57 245 61 272 6 38 10 54 17 65 3 6 7 28 9 50 1 22 6 45
10 50 4 6 9 25 12 43 6 37 23 116 39 177 6 22 12 51 14 65 3 14 7 33 10 42 3
10 7 30 10 45 4 30 19 95 35 155 13 49 28 125 35 168 3 19 9 46 14 60 5 14 12
43 15 65 3 22 10 57 15 77 25 96 29 115 35 148 3 19 9 49 14 65 5 17 14 57 21
90 6 33 16 78 22 100 6 22 12 53 14 69 2 16 8 43 13 60 6 17 15 58 22 91 6 33
17 85 25 115 7 30 25 109 39 175 14 66 30 138 36 160 6 22 13 49 14 60 7 42
34 165 57 252 6 23 11 55 13 71 1 16 5 34 8 39 3 4 8 28 12 53 4 25 8 47 10
51 5 7 35 143 42 189 3 19 9 43 14 52 5 9 9 29 9 43 0 14 4 34 9 43 5 9 12 39
15 66 4 27 10 54 12 58 3 5 8 24 11 41 2 18 8 46 13 62 5 17 12 44 14 60 5 29
19 92 36 165 17 74 31 136 36 165 2 17 7 37 10 45 3 8 8 26 10 40 3 14 9 41
14 60 5 19 12 53 16 75 3 22 8 44 11 48 3 5 7 23 10 40 2 18 13 68 24 112 11
44 22 98 26 120 3 22 9 47 13 55 4 8 9 33 11 55 1 22 7 45 11 51 5 7 11 30 13
53 2 23 7 46 11 52 3 6 8 25 11 42 2 18 14 70 25 117 11 47 21 94 24 105 10
52 30 141 49 220 8 39 18 81 20 95 7 36 35 159 45 200 5 19 14 62 20 95 7 33
16 74 21 90 12 41 28 119 39 184 5 32 17 63 29 75 21 20 21 20 22 1 1 -30 18
-120 40 -210 6 -22 12 -51 14 -65 2 -14 17 -90 35 -170 17 -80 33 -160 35
-178 3 -18 10 -42 15 -52 6 -10 10 -32 10 -48 0 -16 4 -42 10 -58 5 -16 11
-42 14 -59 3 -16 8 -41 11 -55 3 -14 8 -38 11 -55 3 -16 7 -36 10 -44 4 -11
27 -118 40 -186 2 -11 6 -29 8 -40 8 -35 46 -217 61 -293 8 -41 17 -77 19 -81
3 -4 8 -30 12 -57 3 -27 11 -57 16 -67 5 -10 7 -21 5 -24 -3 -2 1 -26 8 -51 8
-26 16 -60 18 -77 3 -16 12 -64 21 -105 9 -41 21 -97 26 -123 5 -27 12 -52 14
-56 3 -4 7 -29 11 -55 3 -27 7 -52 10 -56 3 -4 7 -25 10 -46 4 -22 9 -48 12
-59 8 -23 9 -28 17 -76 3 -20 9 -47 14 -60 4 -13 8 -31 7 -39 -1 -8 2 -23 7
-32 5 -10 11 -36 14 -58 7 -48 12 -75 14 -75 2 0 10 -36 15 -65 2 -14 13 -68
25 -120 12 -52 23 -102 24 -110 5 -23 18 -99 17 -105 0 -2 5 -19 10 -37 14
-46 19 -68 24 -102 3 -16 9 -43 14 -60 5 -17 12 -47 15 -66 12 -85 19 -117 30
-150 8 -19 11 -41 9 -48 -3 -8 -45 -53 -93 -102 -169 -170 -301 -419 -350
-659 -19 -92 -21 -107 -28 -190 -47 -538 146 -1032 497 -1271 197 -133 407
-193 681 -194 152 -1 232 11 364 55 170 57 300 140 437 279 85 86 219 272 219
303 0 13 -157 115 -164 106 -1 -2 -15 -26 -31 -54 -71 -126 -195 -264 -291
-324 -91 -58 -229 -99 -328 -97 l-51 1 2 35 c1 19 4 44 6 55 3 11 8 31 11 45
3 14 8 36 10 50 15 80 29 149 37 180 5 19 11 51 14 70 2 19 9 53 14 75 5 22
15 67 21 100 6 33 16 78 21 100 5 22 11 51 13 65 2 14 13 70 24 125 12 55 23
114 25 130 7 48 27 115 35 116 4 1 135 2 292 3 l285 1 -1 165 c0 148 -4 191
-29 320 -21 106 -79 243 -148 345 -41 60 -171 195 -189 195 -5 0 -7 22 -6 50
2 27 6 50 9 50 3 0 6 6 7 13 2 30 21 124 31 148 5 15 8 29 5 32 -3 2 2 35 11
73 27 119 35 158 40 197 2 21 7 42 10 47 3 5 8 28 10 52 3 24 14 84 25 133 11
50 23 106 26 125 3 19 9 49 14 65 5 17 11 48 14 70 2 22 8 54 13 70 5 17 9 37
8 45 -1 8 2 22 6 30 4 8 9 34 13 58 3 24 10 60 15 80 5 20 13 55 16 77 7 45
13 70 15 70 1 0 3 16 5 35 2 19 8 51 13 70 12 43 32 143 37 188 2 18 6 36 9
40 2 4 7 28 11 52 3 25 11 62 16 83 6 21 12 53 14 70 3 18 11 64 20 102 16 78
26 130 30 161 1 11 5 26 8 31 4 6 9 32 12 59 4 26 8 51 11 56 3 4 7 27 10 50
3 24 7 51 10 60 6 20 12 52 20 98 3 19 8 39 11 43 2 4 6 24 9 45 2 20 8 55 13
77 14 62 31 147 35 182 3 18 7 36 9 40 3 5 8 29 12 53 3 25 11 63 17 85 6 22
12 51 13 65 2 25 18 109 36 185 5 22 10 54 13 70 2 17 7 37 10 45 4 13 10 44
20 110 1 8 5 22 9 30 4 8 8 33 10 55 1 22 6 45 9 51 4 6 10 35 13 64 4 30 10
61 14 69 5 9 11 39 14 66 3 28 8 57 11 65 2 8 7 34 10 58 3 24 8 48 12 53 3 6
8 25 10 42 7 53 45 189 81 291 28 82 94 216 105 216 4 0 8 7 8 15 0 8 5 15 10
15 6 0 10 6 10 13 0 6 21 35 45 62 25 28 45 53 45 58 0 4 5 7 10 7 6 0 25 16
43 35 17 19 38 35 44 35 7 0 13 4 13 10 0 5 15 17 33 26 17 9 34 20 37 23 7 9
110 58 138 66 12 3 22 10 22 14 0 6 18 9 85 14 19 2 20 10 21 167 1 91 0 172
-2 180 -3 13 -111 15 -899 14 -493 -1 -899 -4 -902 -8 -11 -11 -9 -337 2 -346
6 -5 20 -9 30 -8 36 1 115 -12 136 -22 10 -6 36 -13 57 -15 54 -5 65 -8 80
-22 7 -7 23 -13 35 -13 12 0 37 -9 55 -20 18 -11 39 -20 47 -20 8 0 18 -6 22
-14 4 -7 19 -19 32 -26 40 -21 99 -79 132 -132 58 -90 75 -206 55 -370 -4 -29
-9 -86 -12 -127 -3 -41 -7 -78 -9 -82 -3 -4 -7 -35 -11 -70 -3 -35 -8 -75 -10
-89 -3 -14 -9 -54 -15 -90 -5 -36 -12 -72 -14 -81 -3 -8 -7 -37 -10 -65 -2
-27 -6 -56 -8 -64 -7 -27 -16 -84 -21 -128 -3 -24 -8 -47 -11 -51 -2 -5 -7
-30 -10 -57 -2 -27 -9 -72 -15 -101 -22 -114 -30 -160 -36 -208 -3 -27 -8 -53
-10 -57 -4 -6 -9 -35 -18 -108 -2 -14 -6 -32 -9 -40 -3 -8 -8 -39 -12 -69 -3
-29 -7 -57 -9 -60 -3 -4 -8 -34 -11 -66 -4 -33 -9 -63 -11 -66 -1 -3 -8 -32
-13 -65 -6 -32 -18 -99 -26 -149 -9 -49 -19 -106 -21 -125 -6 -46 -10 -62 -17
-80 -3 -8 -8 -35 -11 -60 -3 -25 -11 -70 -17 -100 -22 -117 -29 -156 -33 -191
-2 -20 -6 -41 -9 -46 -3 -5 -8 -33 -11 -61 -3 -29 -7 -56 -10 -60 -3 -5 -8
-31 -11 -58 -4 -27 -10 -65 -15 -84 -5 -19 -12 -57 -16 -85 -3 -27 -10 -57
-15 -66 -4 -9 -9 -37 -10 -63 -2 -26 -6 -49 -9 -51 -3 -2 -7 -21 -8 -42 -2
-21 -7 -55 -13 -75 -5 -20 -12 -56 -15 -80 -3 -24 -8 -50 -10 -58 -3 -8 -8
-33 -10 -55 -3 -22 -9 -56 -14 -75 -5 -19 -12 -55 -15 -80 -3 -25 -10 -58 -15
-75 -5 -16 -10 -48 -11 -70 -2 -22 -6 -45 -10 -50 -4 -6 -10 -33 -13 -60 -3
-28 -13 -84 -21 -125 -9 -41 -18 -93 -21 -115 -3 -22 -9 -53 -14 -70 -5 -16
-12 -52 -16 -80 -3 -27 -8 -59 -11 -70 -3 -11 -7 -33 -10 -50 -3 -16 -10 -33
-15 -36 -5 -3 -37 -1 -71 6 -34 7 -93 16 -130 19 -38 3 -72 8 -77 11 -5 3 -14
31 -20 63 -7 31 -16 71 -21 87 -5 17 -11 50 -14 74 -3 23 -8 48 -12 54 -4 6
-8 27 -10 47 -2 19 -6 42 -10 50 -3 8 -7 18 -8 23 -2 4 -3 8 -4 10 -2 1 -4 19
-6 39 -1 20 -5 40 -8 45 -3 5 -9 32 -13 59 -3 27 -9 54 -12 59 -4 6 -8 21 -9
35 -2 14 -8 43 -13 65 -5 22 -12 51 -15 65 -7 40 -33 159 -50 235 -18 78 -29
134 -44 212 -5 29 -12 56 -14 60 -3 5 -8 25 -11 46 -6 37 -15 78 -37 172 -5
22 -11 51 -13 65 -14 76 -29 147 -36 165 -6 17 -15 57 -36 165 -18 96 -36 174
-39 180 -3 4 -6 22 -9 41 -2 19 -11 62 -19 97 -9 34 -13 62 -11 62 3 0 1 8 -5
18 -5 9 -11 36 -15 60 -3 24 -8 47 -10 51 -3 4 -8 23 -11 42 -11 68 -36 182
-41 190 -2 4 -7 27 -10 51 -3 24 -9 56 -15 72 -5 16 -9 41 -9 56 0 15 -3 30
-7 34 -7 7 -9 17 -18 74 -2 18 -7 37 -10 43 -4 5 -8 22 -10 37 -5 35 -29 148
-50 237 -9 39 -19 90 -22 115 -3 25 -9 50 -13 55 -4 6 -11 35 -15 65 -4 30
-13 71 -20 91 -8 21 -11 39 -9 42 3 2 0 15 -5 28 -5 13 -12 46 -15 73 -4 27
-9 53 -12 57 -4 7 -13 47 -34 154 -5 22 -11 51 -14 65 -8 38 -35 162 -40 190
-3 14 -12 57 -21 95 -9 39 -20 93 -26 120 -12 58 -17 78 -19 85 -1 3 -2 9 -1
14 1 4 -3 22 -8 40 -6 17 -13 47 -16 66 -3 19 -10 51 -15 70 -5 19 -12 50 -15
69 -3 19 -8 37 -10 40 -2 4 -6 27 -10 51 -6 43 -12 71 -36 161 -6 23 -12 58
-14 78 -2 20 -9 49 -14 64 l-11 27 -161 -2 -162 -3 -13 -45 c-7 -25 -16 -59
-18 -76 -3 -16 -15 -70 -27 -120 -12 -49 -23 -104 -25 -123 -3 -19 -9 -42 -15
-52 -5 -11 -8 -19 -5 -19 2 0 -2 -28 -11 -62 -8 -35 -16 -75 -18 -91 -2 -15
-6 -31 -9 -36 -3 -4 -8 -23 -11 -42 -3 -19 -10 -53 -15 -76 -26 -113 -30 -130
-34 -153 -3 -14 -12 -56 -21 -95 -9 -38 -18 -81 -20 -95 -11 -55 -36 -167 -45
-195 -5 -16 -11 -47 -14 -69 -4 -21 -8 -41 -10 -45 -3 -3 -7 -26 -11 -51 -4
-25 -8 -47 -10 -51 -2 -3 -7 -20 -10 -38 -3 -17 -12 -59 -19 -91 -8 -33 -12
-60 -10 -60 3 0 0 -8 -5 -17 -5 -10 -12 -36 -16 -58 -4 -22 -8 -44 -9 -50 -10
-39 -16 -64 -20 -90 -3 -16 -16 -78 -29 -137 -14 -60 -23 -108 -20 -108 2 0
-1 -9 -6 -19 -6 -10 -13 -34 -16 -52 -7 -49 -32 -161 -38 -179 -3 -8 -8 -28
-11 -45 -2 -16 -14 -73 -25 -125 -12 -52 -23 -105 -26 -117 -2 -13 -6 -27 -9
-32 -3 -4 -8 -30 -11 -57 -4 -26 -8 -51 -10 -54 -4 -7 -34 -139 -41 -185 -3
-16 -9 -41 -14 -55 -7 -21 -17 -69 -21 -102 0 -4 -7 -36 -16 -70 -8 -35 -17
-74 -19 -88 -3 -14 -9 -41 -14 -60 -5 -19 -12 -51 -15 -70 -3 -19 -8 -43 -11
-52 -3 -9 -6 -25 -8 -35 -17 -83 -38 -177 -41 -182 -2 -4 -6 -26 -10 -51 -4
-25 -9 -48 -11 -52 -2 -3 -9 -28 -14 -55 -11 -56 -14 -73 -36 -173 -8 -41 -20
-88 -24 -105 -5 -16 -11 -47 -15 -69 -3 -21 -7 -41 -9 -45 -2 -3 -7 -24 -10
-46 -4 -22 -11 -53 -16 -70 -5 -16 -11 -43 -13 -60 -3 -16 -8 -37 -11 -45 -3
-8 -8 -32 -11 -54 -3 -21 -7 -42 -10 -46 -2 -3 -7 -22 -10 -41 -3 -19 -10 -50
-15 -70 -6 -20 -12 -49 -14 -65 -3 -16 -12 -60 -21 -99 -9 -38 -20 -90 -25
-115 -5 -25 -11 -52 -14 -60 -3 -8 -8 -32 -11 -54 -3 -21 -7 -42 -10 -46 -3
-4 -7 -25 -10 -46 -4 -22 -10 -52 -14 -69 -5 -16 -16 -66 -25 -110 -10 -44
-21 -96 -26 -115 -21 -87 -34 -148 -37 -180 -2 -19 -8 -37 -14 -38 -5 -2 -7
-8 -3 -13 3 -5 -2 -9 -10 -9 -9 0 -16 3 -17 8 -2 22 -10 78 -14 101 -10 51
-36 187 -41 216 -3 17 -7 41 -10 55 -3 14 -9 51 -14 82 -4 32 -10 61 -13 65
-3 4 -8 32 -11 62 -4 29 -9 57 -12 62 -3 5 -7 30 -10 56 -3 27 -10 64 -15 83
-6 19 -12 55 -15 80 -2 25 -7 52 -10 60 -3 8 -8 29 -10 45 -3 17 -9 50 -14 75
-6 25 -12 62 -15 83 -2 21 -6 41 -9 46 -3 4 -8 35 -12 67 -3 32 -8 62 -10 65
-2 3 -6 21 -9 40 -4 28 -14 77 -20 99 -1 3 -5 32 -9 65 -5 33 -12 65 -15 70
-4 6 -8 28 -10 50 -1 22 -7 55 -12 73 -6 18 -12 52 -14 76 -1 24 -5 48 -8 53
-3 5 -8 27 -11 49 -4 22 -9 51 -11 64 -19 89 -37 191 -41 229 -2 24 -8 49 -12
55 -5 6 -9 29 -11 51 -1 22 -6 54 -12 71 -5 17 -11 52 -13 77 -3 26 -7 50 -10
56 -3 5 -10 37 -16 72 -5 35 -16 100 -25 144 -8 44 -18 96 -21 115 -3 19 -7
42 -10 50 -3 8 -8 35 -11 60 -2 25 -6 52 -7 60 -1 8 -5 20 -9 27 -4 7 -10 35
-12 63 -3 28 -7 55 -10 59 -2 5 -7 26 -10 47 -3 22 -10 62 -15 89 -5 28 -12
66 -15 85 -3 19 -10 53 -15 75 -5 22 -14 74 -20 115 -6 41 -16 89 -21 105 -6
17 -12 48 -13 70 -2 22 -8 58 -14 80 -12 46 -26 136 -24 148 1 4 -1 7 -5 7 -5
0 -8 15 -9 33 -1 17 -4 46 -8 62 -4 17 -9 44 -11 60 -2 17 -9 53 -14 80 -21
106 -31 161 -37 200 -3 22 -10 56 -15 76 -5 20 -11 57 -14 83 -2 26 -7 50 -9
54 -2 4 -8 35 -11 67 -4 33 -11 70 -16 83 -5 13 -9 38 -9 57 0 19 -4 45 -9 58
-5 13 -12 59 -15 101 -3 42 -8 86 -11 99 -16 66 -12 148 10 196 22 46 72 96
105 103 8 2 19 8 25 15 5 6 24 14 41 16 17 3 47 12 65 21 19 8 60 17 91 20 31
2 63 8 70 12 7 5 18 9 23 11 6 1 21 4 35 8 14 3 58 6 98 7 39 1 73 4 73 7 6
32 2 344 -5 348 -17 11 -2008 9 -2014 -2z m5164 -5485 c51 -23 103 -66 100
-83 -1 -6 -5 -25 -9 -42 -4 -16 -8 -41 -11 -55 -12 -71 -48 -257 -52 -274 -7
-22 -23 -10 -29 22 -2 12 -6 26 -9 30 -2 4 -7 27 -11 52 -4 25 -8 48 -11 51
-2 4 -6 24 -9 45 -3 22 -9 46 -12 54 -3 8 -7 29 -9 45 -2 17 -11 59 -20 93 -8
35 -13 70 -10 77 6 16 33 11 92 -15z m-754 -496 c4 -6 9 -32 13 -58 3 -27 8
-52 11 -57 3 -5 8 -30 11 -56 3 -27 9 -56 14 -65 5 -9 9 -28 9 -42 0 -26 -1
-26 -75 -26 l-76 0 6 73 c11 131 34 248 58 292 10 18 12 17 17 -15 3 -20 9
-40 12 -46z m1065 -116 c1 -7 4 -44 8 -83 11 -106 11 -105 -26 -105 -34 0 -33
-9 -8 128 12 65 25 93 26 60z m-967 -377 c5 -1 28 -89 36 -141 5 -32 23 -114
34 -160 5 -19 11 -48 14 -65 3 -16 9 -41 12 -55 6 -25 13 -60 34 -174 6 -33
13 -62 15 -66 3 -4 7 -25 10 -46 4 -22 10 -52 15 -69 5 -16 11 -43 14 -60 2
-16 11 -58 19 -92 8 -35 13 -63 10 -63 -3 0 0 -6 6 -14 20 -24 -5 -27 -35 -4
-72 54 -160 152 -203 228 -23 40 -73 142 -76 154 -7 35 -19 72 -25 81 -4 6
-10 24 -14 40 -3 17 -11 53 -16 80 -6 28 -13 68 -16 89 -2 21 -6 42 -8 45 -6
10 -18 280 -13 288 4 7 159 10 187 4z"/>
</g>
</svg>
